<svg id="Layer_1" data-name="Layer 1" xmlns="http://www.w3.org/2000/svg" viewBox="0 0 667.92 195.4"><defs><style>.cls-1{fill:#b21f8b;}.cls-2{fill:#939598;}</style></defs><title>say-logo-horizontal-magenta</title><circle class="cls-1" cx="94.2" cy="98.1" r="16.7"/><path class="cls-1" d="M183.1,145.1a98,98,0,1,0-33.5,35.3L152,181l43.3,9.8-12-44.9A3.09,3.09,0,0,0,183.1,145.1ZM63.5,117.8c-3.7,3.8-9.6,6-16.4,6-12.8,0-21.4-6.1-23-16.3l-0.2-1.2a1.45,1.45,0,0,1,1.4-1.7h5a1.6,1.6,0,0,1,1.6,1.3l0.1,0.6c1.3,6,6.6,9.3,15.1,9.3,4.5,0,8.5-1.4,10.7-3.8a5.8,5.8,0,0,0,1.5-4.4c-0.1-2.8-1.2-5.9-13.4-7.7H45.7c-8-1.2-19-2.8-19.2-13.8,0-9.7,9.7-14.8,19.3-14.8,11.1,0,18.4,5.2,20.6,14.5l0.2,0.9a1.75,1.75,0,0,1-1.7,2.1H60.4a1.83,1.83,0,0,1-1.8-1.4l-0.1-.3c-1.6-5.2-5.8-7.9-12.6-7.9-4.2,0-7.8,1.2-9.8,3.3A5,5,0,0,0,34.6,86c0,2.8,1.9,4.4,12.6,5.9C57,93.4,67,96.4,67.5,107.2A15.73,15.73,0,0,1,63.5,117.8Zm55.3,3.3a1.75,1.75,0,0,1-1.7,1.7h-4.6a1.75,1.75,0,0,1-1.7-1.7v-4.2a23.61,23.61,0,0,1-16.7,6.9c-13.6,0-24.6-11.5-24.6-25.6,0-14.3,11-25.9,24.6-25.9a24.06,24.06,0,0,1,16.7,7V75.1a1.75,1.75,0,0,1,1.7-1.7h4.6a1.75,1.75,0,0,1,1.7,1.7v46Zm48,2.4c0,12.4-8.6,21.1-21,21.1a20.42,20.42,0,0,1-18.6-11,1.26,1.26,0,0,1,1.1-1.8h6.3a2,2,0,0,1,1.5.6,12.72,12.72,0,0,0,9.7,4.2c7.9,0,12.9-5.1,12.9-13.1v-4.1a20.68,20.68,0,0,1-13.5,4.4,21.17,21.17,0,0,1-20.7-21.2V75.2a1.69,1.69,0,0,1,1.7-1.7h4.6a1.69,1.69,0,0,1,1.7,1.7v27.6A12.64,12.64,0,0,0,145,115.9a13.26,13.26,0,0,0,13.7-13.3V75.2a1.75,1.75,0,0,1,1.7-1.7H165a1.75,1.75,0,0,1,1.7,1.7v48.3h0.1Z" transform="translate(0 0)"/><path class="cls-2" d="M218.7,75a1.32,1.32,0,0,1,1.3-1.3h2.8a1.32,1.32,0,0,1,1.3,1.3v46.4a1.32,1.32,0,0,1-1.3,1.3H220a1.32,1.32,0,0,1-1.3-1.3V75Z" transform="translate(0 0)"/><path class="cls-2" d="M242.7,74.3A1.32,1.32,0,0,1,244,73h1.8l31.6,39.4h0.1V75a1.32,1.32,0,0,1,1.3-1.3h2.5a1.32,1.32,0,0,1,1.3,1.3v47.2a1.32,1.32,0,0,1-1.3,1.3H280L247.8,83.3h-0.1v38.1a1.32,1.32,0,0,1-1.3,1.3h-2.5a1.32,1.32,0,0,1-1.3-1.3V74.3h0.1Z" transform="translate(0 0)"/><path class="cls-2" d="M298.1,115.4c0.4-.4.7-0.9,1.1-1.3,0.7-.9,1.5-1.5,2.5-0.6,0.5,0.4,5.6,5.3,11.9,5.3,5.7,0,9.4-3.6,9.4-7.7,0-4.8-4.2-7.7-12.3-11.1-7.7-3.4-12.3-6.5-12.3-14.5,0-4.8,3.8-12.5,14.9-12.5a22.76,22.76,0,0,1,12,3.6,1.56,1.56,0,0,1,.4,2.4,9.13,9.13,0,0,0-.8,1.3,1.56,1.56,0,0,1-2.5.6c-0.5-.3-4.9-3.2-9.2-3.2-7.4,0-9.7,4.8-9.7,7.7,0,4.7,3.6,7.4,9.5,9.9,9.5,3.9,15.6,7.4,15.6,15.6,0,7.3-6.9,12.6-15.1,12.6a22.43,22.43,0,0,1-14.8-5.7c-0.8-.5-1.5-1-0.6-2.4" transform="translate(0 0)"/><path class="cls-2" d="M342.2,75a1.32,1.32,0,0,1,1.3-1.3h2.7a1.26,1.26,0,0,1,1.3,1.3v29.2c0,8,5,14.2,13.2,14.2s13.3-6.1,13.3-14.1V75a1.32,1.32,0,0,1,1.3-1.3H378a1.32,1.32,0,0,1,1.3,1.3v29.7c0,10.7-7.6,18.8-18.7,18.8s-18.5-8.1-18.5-18.8V75h0.1Z" transform="translate(0 0)"/><path class="cls-2" d="M415,98.9a10.05,10.05,0,1,0,0-20.1H401.4V98.9H415ZM395.8,75a1.32,1.32,0,0,1,1.3-1.3h18.2a15.09,15.09,0,0,1,15.3,14.9c0,6.5-4.3,11.9-10.4,14.3l9.6,17.8a1.3,1.3,0,0,1-1.2,2H425a1.29,1.29,0,0,1-1.1-.6l-9.3-18.6H401.2v17.9a1.32,1.32,0,0,1-1.3,1.3h-2.7a1.26,1.26,0,0,1-1.3-1.3V75h-0.1Z" transform="translate(0 0)"/><path class="cls-2" d="M474.4,106.1c-3.4-7.6-6.8-15.4-10.2-23h-0.6l-10.2,23h21ZM441,121l21.3-47.2a1.35,1.35,0,0,1,1.2-.8h0.7a1.35,1.35,0,0,1,1.2.8L486.6,121a1.22,1.22,0,0,1-1.2,1.8h-2.8a1.24,1.24,0,0,1-1.2-.8l-5.2-11.6H451.3L446.2,122a1.24,1.24,0,0,1-1.2.8h-2.8A1.25,1.25,0,0,1,441,121" transform="translate(0 0)"/><path class="cls-2" d="M499.9,74.3a1.32,1.32,0,0,1,1.3-1.3H503l31.6,39.4h0.1V75a1.32,1.32,0,0,1,1.3-1.3h2.5a1.32,1.32,0,0,1,1.3,1.3v47.2a1.32,1.32,0,0,1-1.3,1.3h-1.3L505,83.3h0v38.1a1.32,1.32,0,0,1-1.3,1.3h-2.5a1.32,1.32,0,0,1-1.3-1.3V74.3h0Z" transform="translate(0 0)"/><path class="cls-2" d="M580.1,73c7.1,0,12.2,2.5,17,6.5a1.42,1.42,0,0,1,.1,2l-1.9,1.9c-0.6.7-1.1,0.6-1.8-.1A20.9,20.9,0,0,0,580.1,78c-11.1,0-19.6,9.3-19.6,20.2s8.5,20.1,19.6,20.1c6.1,0,9.7-2.5,13.4-5.3a1.27,1.27,0,0,1,1.7-.2l2.1,1.9a1.31,1.31,0,0,1-.1,1.9,24.22,24.22,0,0,1-17,6.8,25.2,25.2,0,1,1-.1-50.4" transform="translate(0 0)"/><path class="cls-2" d="M612.2,75a1.32,1.32,0,0,1,1.3-1.3h27.6a1.26,1.26,0,0,1,1.3,1.3v2a1.32,1.32,0,0,1-1.3,1.3H617.5V95.4h20.1a1.32,1.32,0,0,1,1.3,1.3v2a1.26,1.26,0,0,1-1.3,1.3H617.5v17.9h23.6a1.26,1.26,0,0,1,1.3,1.3v2a1.32,1.32,0,0,1-1.3,1.3H613.5a1.26,1.26,0,0,1-1.3-1.3V75Z" transform="translate(0 0)"/><path class="cls-2" d="M657.2,82.5l1.6-8.4a0.77,0.77,0,0,1,.6-0.5h0.1a0.62,0.62,0,0,1,.5.3l2.5,6.6,2.6-6.6a0.55,0.55,0,0,1,.5-0.3h0.1a0.74,0.74,0,0,1,.6.5l1.6,8.4a0.56,0.56,0,0,1-.6.7H667a0.63,0.63,0,0,1-.6-0.5l-1.1-5.1-2.2,5.5a0.55,0.55,0,0,1-.5.3h-0.2a0.46,0.46,0,0,1-.5-0.3l-2.2-5.4-1.1,5.2a0.77,0.77,0,0,1-.6.5h-0.3a0.72,0.72,0,0,1-.5-0.9m-5.4.2V75.4h-2.2a0.58,0.58,0,0,1-.6-0.6V74.5a0.65,0.65,0,0,1,.6-0.6h5.9a0.65,0.65,0,0,1,.6.6v0.3a0.58,0.58,0,0,1-.6.6h-2.2v7.3a0.65,0.65,0,0,1-.6.6h-0.4a0.56,0.56,0,0,1-.5-0.6" transform="translate(0 0)"/></svg>